<svg width="768" height="50" xmlns="http://www.w3.org/2000/svg">

 <g>
  <title>background</title>
  <rect fill="none" id="canvas_background" height="52" width="770" y="-1" x="-1"/>
 </g>
 <g>
  <title>Layer 1</title>
  <path stroke="null" id="svg_1" fill="white" d="m150,3.90855c-49.2,-9.96935 -94.8,2.51196 -120.3,9.96935c-7.8921,2.308 -29.7,-0.9355 -29.7,-0.9355l0.00001,157.2916l767.99999,0l0,-157.2908c0,0 -38.516,5.0449 -61.5,5.0449c-22.638,0 -44.015,-6.9686 -73.2,-7.0649c-30.219,-0.0997 -70.776,9.342 -100.8,10.9517c-58.496,3.1361 -69.9,-7.1838 -125.7,-7.1838c-34.952,0 -45.9,4.9454 -85.5,12.4028c-39.6,7.4574 -122.1,-13.216 -171.3,-23.18535z"/>
 </g>
</svg>